<svg xmlns="http://www.w3.org/2000/svg" xmlns:xlink="http://www.w3.org/1999/xlink" version="1.1" x="0px" y="0px" viewBox="0 0 100 125" enable-background="new 0 0 100 100" xml:space="preserve"><g><path d="M67.721,43.092l-6.917,1.22l1.221,6.918l6.916-1.22L67.721,43.092z M63.464,49.17l-0.602-3.416l3.418-0.604l0.603,3.417   L63.464,49.17z"/><path d="M71.879,49.491l6.917-1.22l-1.22-6.917l-6.917,1.22L71.879,49.491z M76.135,43.412l0.602,3.418l-3.416,0.603l-0.603-3.417   L76.135,43.412z"/><path d="M70.463,58.646l-1.221-6.918l-6.914,1.22l1.218,6.918L70.463,58.646z M67.803,53.785l0.603,3.418l-3.417,0.602   l-0.604-3.416L67.803,53.785z"/><path d="M73.4,58.126l6.918-1.22l-1.222-6.917l-6.915,1.221L73.4,58.126z M77.657,52.048l0.602,3.418l-3.416,0.603l-0.604-3.418   L77.657,52.048z"/><path d="M63.151,17.185l-6.916,1.221l1.22,6.917l6.916-1.219L63.151,17.185z M58.896,23.264l-0.603-3.418l3.417-0.602l0.603,3.417   L58.896,23.264z"/><path d="M74.227,22.365l-1.22-6.917l-6.916,1.22l1.219,6.916L74.227,22.365z M71.565,17.507l0.604,3.416l-3.417,0.604l-0.603-3.417   L71.565,17.507z"/><path d="M64.676,25.82l-6.918,1.22l1.22,6.918l6.918-1.219L64.676,25.82z M60.419,31.899l-0.602-3.417l3.418-0.604l0.602,3.417   L60.419,31.899z"/><path d="M68.831,32.22l6.92-1.22l-1.222-6.916l-6.917,1.219L68.831,32.22z M73.089,26.142l0.603,3.418l-3.417,0.603l-0.603-3.418   L73.089,26.142z"/><path d="M66.196,34.456l-6.915,1.22l1.22,6.918l6.918-1.22L66.196,34.456z M61.941,40.534l-0.603-3.416l3.419-0.604l0.603,3.418   L61.941,40.534z"/><path d="M70.355,40.855l6.917-1.22l-1.22-6.917l-6.917,1.221L70.355,40.855z M74.611,34.777l0.603,3.417l-3.416,0.603l-0.604-3.417   L74.611,34.777z"/><path d="M25.121,37.385l-6.916,1.22l1.219,6.917l6.918-1.219L25.121,37.385z M20.866,43.462l-0.603-3.416l3.417-0.604l0.603,3.419   L20.866,43.462z"/><path d="M36.195,42.563l-1.218-6.917l-6.917,1.22l1.218,6.918L36.195,42.563z M33.534,37.705l0.603,3.417l-3.417,0.604   l-0.604-3.418L33.534,37.705z"/><path d="M46.051,40.826l-1.22-6.917l-6.917,1.22l1.219,6.917L46.051,40.826z M43.39,35.968l0.603,3.418l-3.418,0.602l-0.603-3.417   L43.39,35.968z"/><path d="M20.947,54.157l6.918-1.22l-1.22-6.918l-6.918,1.22L20.947,54.157z M25.203,48.078l0.603,3.418l-3.417,0.602l-0.603-3.416   L25.203,48.078z"/><path d="M30.802,52.42l6.918-1.221l-1.22-6.917l-6.918,1.221L30.802,52.42z M35.059,46.341l0.602,3.418l-3.417,0.603l-0.602-3.418   L35.059,46.341z"/><path d="M40.655,50.683l6.918-1.221l-1.218-6.917l-6.918,1.22L40.655,50.683z M44.912,44.603l0.603,3.418l-3.418,0.603   l-0.601-3.417L44.912,44.603z"/><path d="M21.25,55.875l1.22,6.918l6.917-1.22l-1.22-6.918L21.25,55.875z M23.911,60.733l-0.602-3.417l3.417-0.603l0.602,3.417   L23.911,60.733z"/><path d="M31.104,54.138l1.22,6.917l6.918-1.22l-1.22-6.917L31.104,54.138z M33.766,58.996l-0.603-3.417l3.417-0.604l0.602,3.418   L33.766,58.996z"/><path d="M42.179,59.317l6.918-1.22l-1.22-6.918l-6.917,1.22L42.179,59.317z M46.435,53.239l0.603,3.417l-3.416,0.603l-0.603-3.418   L46.435,53.239z"/><path d="M80.471,79.556c-2.778,2.579-8.441,2.579-11.221,0c-3.442-3.198-10.199-3.197-13.639-0.001   c-2.779,2.58-8.443,2.579-11.222,0.001c-3.441-3.196-10.198-3.196-13.641,0c-2.779,2.579-8.442,2.579-11.22,0   c-3.441-3.198-10.197-3.198-13.638,0c-0.361,0.332-0.382,0.896-0.048,1.254c0.333,0.36,0.896,0.381,1.254,0.047   c2.781-2.582,8.445-2.582,11.223,0c1.721,1.6,4.27,2.397,6.82,2.397c2.549,0,5.098-0.799,6.819-2.396   c2.779-2.581,8.442-2.581,11.222,0c3.441,3.193,10.199,3.194,13.642-0.001c2.777-2.581,8.438-2.58,11.218,0   c3.445,3.196,10.2,3.195,13.641,0c2.779-2.58,8.442-2.581,11.223,0c0.359,0.334,0.921,0.313,1.256-0.047   c0.335-0.358,0.312-0.922-0.048-1.254C90.666,76.358,83.91,76.359,80.471,79.556z"/><path d="M80.471,74.29c-2.778,2.58-8.441,2.579-11.221,0c-3.442-3.197-10.199-3.197-13.639,0c-2.779,2.579-8.443,2.579-11.222,0   c-3.441-3.196-10.198-3.196-13.641,0c-2.779,2.581-8.442,2.58-11.22,0c-3.441-3.197-10.197-3.198-13.638,0   c-0.361,0.334-0.382,0.896-0.048,1.256c0.333,0.359,0.896,0.381,1.254,0.047c2.781-2.582,8.445-2.582,11.223,0   c1.721,1.599,4.27,2.397,6.82,2.397c2.549,0,5.098-0.799,6.819-2.396c2.779-2.583,8.442-2.583,11.222,0   c3.441,3.193,10.199,3.194,13.642-0.001c2.777-2.582,8.438-2.582,11.218,0c3.445,3.196,10.2,3.195,13.641,0   c2.779-2.582,8.442-2.582,11.223,0c0.359,0.334,0.921,0.312,1.256-0.047s0.312-0.922-0.048-1.256   C90.666,71.093,83.91,71.094,80.471,74.29z"/><path d="M7.096,70.328c2.781-2.582,8.445-2.581,11.223,0c1.721,1.598,4.27,2.397,6.82,2.397c2.549,0,5.098-0.8,6.819-2.397   c2.779-2.581,8.442-2.58,11.222,0c3.441,3.194,10.199,3.195,13.642,0c2.777-2.581,8.438-2.581,11.218,0   c3.445,3.195,10.2,3.195,13.641,0c2.779-2.581,8.442-2.581,11.223,0c0.359,0.334,0.921,0.312,1.256-0.048   c0.335-0.358,0.312-0.922-0.048-1.255c-1.793-1.666-4.488-2.455-7.144-2.385L76.828,9.752l-4.673,0.824l-0.774-4.377L54.17,9.232   l0.771,4.379l-4.245,0.75l9.241,52.537c-1.534,0.328-2.956,0.971-4.076,1.922l-7.122-40.533l-4.74,0.837L43.236,24.8l-26.609,4.692   l0.761,4.324l-4.775,0.841l5.852,33.56c-3.63-2.351-9.458-2.087-12.575,0.809c-0.361,0.333-0.382,0.896-0.048,1.255   C6.174,70.641,6.737,70.662,7.096,70.328z M72.251,70.61l-1.424-8.454l3.424-0.604l1.636,9.352   C74.666,71.025,73.408,70.928,72.251,70.61z M56.227,10.675L69.94,8.257l0.464,2.629L56.69,13.304L56.227,10.675z M52.753,15.802   l22.64-3.991l9.801,55.008c-1.799,0.319-3.478,1.052-4.723,2.207c-0.766,0.712-1.754,1.219-2.838,1.538l-1.938-11.069l-6.912,1.218   l1.53,9.094c-0.385-0.227-0.747-0.483-1.063-0.78c-1.887-1.751-4.768-2.537-7.553-2.368L52.753,15.802z M35.125,66.889   l-0.448-2.674l3.415-0.602l0.504,3.062C37.436,66.575,36.253,66.652,35.125,66.889z M18.685,30.935l23.11-4.075l0.454,2.571   l-23.11,4.076L18.685,30.935z M47.296,30.346l6.961,39.621c-2.989,1.579-7.488,1.27-9.869-0.941   c-1.063-0.986-2.442-1.667-3.94-2.045l-0.894-5.43l-6.919,1.221l0.773,4.629c-0.998,0.393-1.911,0.929-2.661,1.625   c-2.475,2.3-7.233,2.545-10.209,0.747l-5.871-33.674L47.296,30.346z"/><path d="M80.471,84.819c-2.778,2.578-8.442,2.578-11.221,0c-3.442-3.198-10.198-3.198-13.639,0c-2.779,2.578-8.443,2.578-11.222,0   c-3.441-3.197-10.198-3.197-13.641,0c-2.78,2.579-8.442,2.579-11.22,0c-3.441-3.198-10.197-3.198-13.638,0   c-0.361,0.334-0.382,0.896-0.048,1.256c0.333,0.359,0.896,0.38,1.254,0.046c2.781-2.581,8.445-2.582,11.223,0   c1.721,1.598,4.27,2.396,6.82,2.396c2.549,0,5.098-0.799,6.819-2.396c2.779-2.581,8.442-2.58,11.222,0   c3.44,3.193,10.199,3.193,13.642,0c2.777-2.581,8.438-2.581,11.218,0c3.444,3.194,10.2,3.193,13.641,0   c2.779-2.581,8.442-2.581,11.223,0c0.359,0.334,0.921,0.313,1.256-0.046c0.335-0.36,0.312-0.922-0.048-1.256   C90.667,81.622,83.911,81.622,80.471,84.819z"/><path d="M80.471,90.102c-2.778,2.579-8.442,2.578-11.221,0.001c-3.442-3.198-10.198-3.197-13.639-0.001   c-2.779,2.578-8.443,2.578-11.222,0.001c-3.441-3.196-10.198-3.196-13.641,0c-2.78,2.578-8.442,2.579-11.22,0   c-3.441-3.198-10.197-3.198-13.638,0c-0.361,0.333-0.382,0.896-0.048,1.256c0.333,0.357,0.896,0.379,1.254,0.046   c2.781-2.582,8.445-2.582,11.223,0c1.721,1.598,4.27,2.396,6.82,2.396c2.549,0,5.098-0.799,6.819-2.396   c2.779-2.582,8.442-2.581,11.222,0c3.44,3.193,10.199,3.193,13.642,0c2.777-2.582,8.438-2.582,11.218,0   c3.444,3.193,10.2,3.193,13.641,0c2.779-2.582,8.442-2.581,11.223,0c0.359,0.333,0.921,0.312,1.256-0.046   c0.335-0.36,0.312-0.923-0.048-1.256C90.667,86.905,83.911,86.906,80.471,90.102z"/></g><text x="0" y="115" fill="#000000" font-size="5px" font-weight="bold" font-family="'Helvetica Neue', Helvetica, Arial-Unicode, Arial, Sans-serif">Created by David Scarnà</text><text x="0" y="120" fill="#000000" font-size="5px" font-weight="bold" font-family="'Helvetica Neue', Helvetica, Arial-Unicode, Arial, Sans-serif">from the Noun Project</text></svg>